<svg width="257" height="129" viewBox="0 0 257 129" fill="none" xmlns="http://www.w3.org/2000/svg">
<path d="M142.201 40.0005V23.9442C142.201 23.6779 142.416 23.4629 142.683 23.4629H158.739C159.005 23.4629 159.22 23.2478 159.22 22.9816V17.9205C159.22 17.6543 159.005 17.4392 158.739 17.4392H136.662C136.395 17.4392 136.18 17.6543 136.18 17.9205V39.9979C136.18 40.2642 136.395 40.4792 136.662 40.4792H141.723C141.989 40.4792 142.204 40.2642 142.204 39.9979" fill="#0C162C"/>
<path d="M224.879 40.0005V23.9442C224.879 23.6779 224.664 23.4629 224.398 23.4629H208.342C208.075 23.4629 207.86 23.2478 207.86 22.9816V17.9205C207.86 17.6543 208.075 17.4392 208.342 17.4392H230.419C230.685 17.4392 230.9 17.6543 230.9 17.9205V39.9979C230.9 40.2642 230.685 40.4792 230.419 40.4792H225.358C225.092 40.4792 224.877 40.2642 224.877 39.9979" fill="#0C162C"/>
<path d="M224.879 89.6031V105.659C224.879 105.926 224.664 106.141 224.398 106.141H208.342C208.075 106.141 207.86 106.356 207.86 106.622V111.683C207.86 111.949 208.075 112.164 208.342 112.164H230.419C230.685 112.164 230.9 111.949 230.9 111.683V89.6057C230.9 89.3394 230.685 89.1244 230.419 89.1244H225.358C225.092 89.1244 224.877 89.3394 224.877 89.6057" fill="#0C162C"/>
<path d="M142.201 89.6031V105.659C142.201 105.926 142.416 106.141 142.683 106.141H158.739C159.005 106.141 159.22 106.356 159.22 106.622V111.683C159.22 111.949 159.005 112.164 158.739 112.164H136.662C136.395 112.164 136.18 111.949 136.18 111.683V89.6057C136.18 89.3394 136.395 89.1244 136.662 89.1244H141.723C141.989 89.1244 142.204 89.3394 142.204 89.6057" fill="#0C162C"/>
<path d="M42.9147 82.2303C42.523 82.2303 42.3054 82.0127 42.2184 81.621L40.9972 75.2594H33.2404L32.0628 81.621C31.9758 82.0127 31.7582 82.2303 31.3665 82.2303H26.7048C26.226 82.2303 26.0084 81.9691 26.139 81.4904L33.371 47.9851C33.458 47.5499 33.7192 47.3759 34.1108 47.3759H40.1678C40.5595 47.3759 40.8206 47.5499 40.9076 47.9851L48.1396 81.4904C48.2267 81.9691 48.0526 82.2303 47.5304 82.2303H42.9121H42.9147ZM37.1188 54.9995L34.331 70.2059H39.9092L37.1214 54.9995H37.1188Z" fill="#185FFF"/>
<path d="M61.9122 47.3733C66.0082 47.3733 68.1867 49.5518 68.1867 53.6479V58.2661C68.1867 58.7013 67.9691 58.9624 67.4904 58.9624H62.9592C62.524 58.9624 62.2629 58.7013 62.2629 58.2661V54.8664C62.2629 53.7349 61.6971 53.1231 60.5195 53.1231H58.428C57.34 53.1231 56.6846 53.7323 56.6846 54.8664V60.8799L67.0552 64.2795C67.795 64.5842 68.1867 65.0629 68.1867 65.8923V75.9583C68.1867 80.0542 66.0082 82.2328 61.9122 82.2328H57.0328C52.9803 82.2328 50.7582 80.0542 50.7582 75.9583V71.3835C50.7582 70.9048 51.0194 70.6872 51.4546 70.6872H55.9858C56.4645 70.6872 56.6821 70.9048 56.6821 71.3835V74.7397C56.6821 75.9173 57.3349 76.4831 58.4254 76.4831H60.517C61.651 76.4831 62.2603 75.9173 62.2603 74.7397V68.9439L51.9333 65.5442C51.1499 65.2831 50.7557 64.7608 50.7557 63.9314V53.6479C50.7557 49.5518 52.9778 47.3733 57.0302 47.3733H61.9096H61.9122Z" fill="#185FFF"/>
<path d="M83.6952 47.3733C87.7912 47.3733 89.9697 49.5518 89.9697 53.6479V58.2661C89.9697 58.7013 89.7521 58.9624 89.2734 58.9624H84.7422C84.307 58.9624 84.0459 58.7013 84.0459 58.2661V54.8664C84.0459 53.7349 83.4801 53.1231 82.3025 53.1231H80.211C79.123 53.1231 78.4676 53.7323 78.4676 54.8664V60.8799L88.8382 64.2795C89.5781 64.5842 89.9697 65.0629 89.9697 65.8923V75.9583C89.9697 80.0542 87.7912 82.2328 83.6952 82.2328H78.8158C74.7633 82.2328 72.5413 80.0542 72.5413 75.9583V71.3835C72.5413 70.9048 72.8024 70.6872 73.2376 70.6872H77.7688C78.2475 70.6872 78.4651 70.9048 78.4651 71.3835V74.7397C78.4651 75.9173 79.1179 76.4831 80.2085 76.4831H82.3C83.4341 76.4831 84.0433 75.9173 84.0433 74.7397V68.9439L73.7163 65.5442C72.9329 65.2831 72.5387 64.7608 72.5387 63.9314V53.6479C72.5387 49.5518 74.7608 47.3733 78.8133 47.3733H83.6926H83.6952Z" fill="#185FFF"/>
<path d="M111.712 52.4267C111.712 52.8619 111.538 53.1666 111.016 53.1666H100.123V61.8808H108.446C108.881 61.8808 109.142 62.1419 109.142 62.6206V66.9342C109.142 67.413 108.881 67.6741 108.446 67.6741H100.123V76.4754H111.016C111.538 76.4754 111.712 76.693 111.712 77.1717V81.5288C111.712 81.964 111.538 82.2251 111.016 82.2251H94.9825C94.5908 82.2251 94.3297 81.964 94.3297 81.5288V48.067C94.3297 47.6318 94.5908 47.3707 94.9825 47.3707H111.016C111.538 47.3707 111.712 47.6318 111.712 48.067V52.4242V52.4267Z" fill="#185FFF"/>
<path d="M131.929 47.3733C132.407 47.3733 132.625 47.6344 132.625 48.0696V52.4267C132.625 52.8619 132.407 53.1231 131.929 53.1231H126.875V81.5314C126.875 82.0101 126.658 82.2277 126.179 82.2277H121.648C121.213 82.2277 120.951 82.0101 120.951 81.5314V53.1231H115.898C115.463 53.1231 115.202 52.8619 115.202 52.4267V48.0696C115.202 47.6344 115.463 47.3733 115.898 47.3733H131.931H131.929Z" fill="#185FFF"/>
<path d="M153.61 52.4267C153.61 52.8619 153.349 53.123 152.913 53.123H142.108V61.8808H150.3C150.735 61.8808 150.996 62.1419 150.996 62.5771V66.9342C150.996 67.413 150.735 67.6306 150.3 67.6306H142.108V81.5288C142.108 81.964 141.846 82.2251 141.411 82.2251H136.88C136.401 82.2251 136.184 81.964 136.184 81.5288V48.067C136.184 47.6318 136.401 47.3707 136.88 47.3707H152.913C153.349 47.3707 153.61 47.6318 153.61 48.067V52.4242V52.4267Z" fill="#0C162C"/>
<path d="M163.194 47.3733C163.629 47.3733 163.891 47.6344 163.891 48.0696V81.5314C163.891 81.9666 163.629 82.2277 163.194 82.2277H158.663C158.184 82.2277 157.967 81.9666 157.967 81.5314V48.0696C157.967 47.6344 158.184 47.3733 158.663 47.3733H163.194Z" fill="#0C162C"/>
<path d="M186.155 47.3733C186.591 47.3733 186.852 47.6344 186.852 48.0696V81.5314C186.852 81.9666 186.591 82.2277 186.155 82.2277H181.842C181.45 82.2277 181.189 82.0536 181.058 81.6619L174.392 63.0584H174.175V81.5314C174.175 81.9666 173.957 82.2277 173.478 82.2277H168.947C168.512 82.2277 168.251 81.9666 168.251 81.5314V48.0696C168.251 47.6344 168.512 47.3733 168.947 47.3733H173.261C173.652 47.3733 173.913 47.5474 174.044 47.9391L180.667 66.4555H180.928V48.0696C180.928 47.6344 181.145 47.3733 181.624 47.3733H186.155Z" fill="#0C162C"/>
<path d="M191.209 48.0696C191.209 47.6344 191.426 47.3733 191.905 47.3733H202.363C206.459 47.3733 208.637 49.5954 208.637 53.6914V75.9557C208.637 80.0517 206.459 82.2302 202.363 82.2302H191.905C191.426 82.2302 191.209 82.0126 191.209 81.5339V48.0722V48.0696ZM201.142 76.4779C202.276 76.4779 202.885 75.9122 202.885 74.7346V54.9099C202.885 53.7323 202.276 53.1231 201.142 53.1231H197.133V76.4754H201.142V76.4779Z" fill="#0C162C"/>
<path d="M230.901 64.2795C230.901 67.1979 229.81 69.1154 227.721 70.0319L230.727 81.4469C230.857 81.9691 230.596 82.2303 230.117 82.2303H225.586C225.151 82.2303 224.933 82.0127 224.846 81.621L221.928 70.5541H218.923V81.5339C218.923 81.9691 218.661 82.2303 218.226 82.2303H213.695C213.26 82.2303 212.999 81.9691 212.999 81.5339V48.0722C212.999 47.637 213.26 47.3759 213.695 47.3759H224.631C228.727 47.3759 230.906 49.5544 230.906 53.6504V64.2821L230.901 64.2795ZM223.234 64.8018C224.365 64.8018 224.977 64.1925 224.977 63.0584V54.8664C224.977 53.7349 224.368 53.1231 223.234 53.1231H218.92V64.7992H223.234V64.8018Z" fill="#0C162C"/>
<path d="M26.0984 96.1591H27.1404V93.3789H29.2421V92.529H27.1404V90.6577H29.836V89.8077H26.0984V96.1591Z" fill="#0C162C"/>
<path d="M31.3336 89.1217C30.9599 89.1217 30.6655 89.4135 30.6655 89.7873C30.6655 90.1611 30.9573 90.4555 31.3336 90.4555C31.7099 90.4555 31.9915 90.1636 31.9915 89.7873C31.9915 89.411 31.6997 89.1217 31.3336 89.1217Z" fill="#185FFF"/>
<path d="M31.8454 91.1237H30.8035V96.1592H31.8454V91.1237Z" fill="#0C162C"/>
<path d="M35.755 91.0417C35.1508 91.0417 34.5953 91.2875 34.2574 91.6997V91.1237H33.2155V96.1592H34.2574V93.3457C34.2574 92.4216 34.7591 91.948 35.5271 91.948C36.2951 91.948 36.7892 92.4241 36.7892 93.3457V96.1592H37.8209V93.1896C37.8209 91.7816 36.9351 91.0417 35.755 91.0417Z" fill="#0C162C"/>
<path d="M42.9201 91.8276C42.5361 91.3515 41.8423 91.0417 41.1844 91.0417C39.8506 91.0417 38.7985 92.0657 38.7985 93.6196C38.7985 95.1736 39.8506 96.2436 41.1741 96.2436C41.9959 96.2436 42.6001 95.8596 42.9201 95.404V96.1617H43.9722V89.3982H42.9201V91.8302V91.8276ZM41.3943 95.3374C40.6186 95.3374 39.8685 94.7076 39.8685 93.6196C39.8685 92.5316 40.6186 91.948 41.3943 91.948C42.17 91.948 42.9201 92.5598 42.9201 93.6376C42.9201 94.7153 42.1802 95.3374 41.3943 95.3374Z" fill="#0C162C"/>
<path d="M46.6966 92.6007C46.3228 92.6007 46.0284 92.8926 46.0284 93.2689C46.0284 93.6452 46.3203 93.9345 46.6966 93.9345C47.0729 93.9345 47.3545 93.6426 47.3545 93.2689C47.3545 92.8951 47.0627 92.6007 46.6966 92.6007Z" fill="#0C162C"/>
<path d="M52.4541 94.7869L50.2243 89.8077H49.1005V96.1591H50.1424V91.8071L52.088 96.1591H52.8099L54.7478 91.8071V96.1591H55.7897V89.8077H54.6761L52.4541 94.7869Z" fill="#0C162C"/>
<path d="M60.932 91.8533C60.6223 91.4411 60.036 91.0392 59.1861 91.0392C57.86 91.0392 56.8104 92.0632 56.8104 93.6171C56.8104 95.171 57.8626 96.2411 59.1682 96.2411C60.0079 96.2411 60.612 95.8392 60.932 95.4091V96.1592H61.9842V91.1237H60.932V91.8558V91.8533ZM59.4063 95.3349C58.6306 95.3349 57.8805 94.7051 57.8805 93.6171C57.8805 92.5291 58.6306 91.9454 59.4063 91.9454C60.1819 91.9454 60.932 92.5573 60.932 93.635C60.932 94.7128 60.1922 95.3349 59.4063 95.3349Z" fill="#0C162C"/>
<path d="M65.894 91.0417C65.2898 91.0417 64.7343 91.2875 64.3964 91.6997V91.1237H63.3544V96.1592H64.3964V93.3457C64.3964 92.4216 64.8981 91.948 65.6661 91.948C66.4341 91.948 66.9282 92.4241 66.9282 93.3457V96.1592H67.9599V93.1896C67.9599 91.7816 67.0741 91.0417 65.894 91.0417Z" fill="#0C162C"/>
<path d="M73.056 91.8533C72.7463 91.4411 72.16 91.0392 71.3101 91.0392C69.984 91.0392 68.9344 92.0632 68.9344 93.6171C68.9344 95.171 69.9866 96.2411 71.2922 96.2411C72.1319 96.2411 72.736 95.8392 73.056 95.4091V96.1592H74.1082V91.1237H73.056V91.8558V91.8533ZM71.5303 95.3349C70.7546 95.3349 70.0045 94.7051 70.0045 93.6171C70.0045 92.5291 70.7546 91.9454 71.5303 91.9454C72.306 91.9454 73.056 92.5573 73.056 93.635C73.056 94.7128 72.3162 95.3349 71.5303 95.3349Z" fill="#0C162C"/>
<path d="M79.249 91.8533C78.9393 91.4232 78.3249 91.0392 77.5031 91.0392C76.177 91.0392 75.1274 92.0632 75.1274 93.6171C75.1274 95.171 76.1796 96.2411 77.5031 96.2411C78.3249 96.2411 78.929 95.8289 79.249 95.4014V96.2411C79.249 97.2472 78.6449 97.7387 77.841 97.7387C77.1191 97.7387 76.561 97.3829 76.4074 96.8606H75.3758C75.5038 97.9742 76.4996 98.6424 77.8436 98.6424C79.4154 98.6424 80.3012 97.6107 80.3012 96.2385V91.1211H79.249V91.8533ZM77.7233 95.3349C76.9476 95.3349 76.1975 94.7051 76.1975 93.6171C76.1975 92.5291 76.9476 91.9454 77.7233 91.9454C78.499 91.9454 79.249 92.5573 79.249 93.635C79.249 94.7128 78.5092 95.3349 77.7233 95.3349Z" fill="#0C162C"/>
<path d="M83.8364 91.0417C82.3465 91.0417 81.3224 92.0555 81.3224 93.6376C81.3224 95.2197 82.3925 96.2437 83.8364 96.2437C85.0703 96.2437 85.8639 95.5397 86.148 94.6616H85.0242C84.8322 95.0533 84.4764 95.3656 83.8364 95.3656C83.0684 95.3656 82.4744 94.8638 82.4028 94.0318H86.2504C86.2786 93.8577 86.2863 93.6939 86.2863 93.5198C86.2863 92.0401 85.2725 91.0443 83.8364 91.0443V91.0417ZM82.4104 93.1896C82.5205 92.3934 83.0863 91.9198 83.7903 91.9198C84.566 91.9198 85.1804 92.4139 85.1983 93.1896H82.4104Z" fill="#0C162C"/>
<path d="M88.3526 92.6007C87.9788 92.6007 87.6844 92.8926 87.6844 93.2689C87.6844 93.6452 87.9763 93.9345 88.3526 93.9345C88.7289 93.9345 89.0105 93.6426 89.0105 93.2689C89.0105 92.8951 88.7187 92.6007 88.3526 92.6007Z" fill="#0C162C"/>
<path d="M93.967 89.7258C92.175 89.7258 90.7234 91.0698 90.7234 92.9694C90.7234 94.8689 92.1775 96.2231 93.967 96.2231C95.7564 96.2231 97.2105 94.8791 97.2105 92.9694C97.2105 91.0596 95.7769 89.7258 93.967 89.7258ZM93.967 95.3194C92.7049 95.3194 91.791 94.4055 91.791 92.9719C91.791 91.5383 92.7049 90.6423 93.967 90.6423C95.229 90.6423 96.143 91.5383 96.143 92.9719C96.143 94.4055 95.229 95.3194 93.967 95.3194Z" fill="#0C162C"/>
<path d="M101.027 91.0417C100.205 91.0417 99.5934 91.4437 99.2734 91.8635V91.1237H98.2314V98.5528H99.2734V95.427C99.601 95.8213 100.198 96.2411 101.027 96.2411C102.353 96.2411 103.395 95.171 103.395 93.6171C103.395 92.0632 102.353 91.0392 101.027 91.0392V91.0417ZM100.799 95.3374C100.023 95.3374 99.2734 94.7256 99.2734 93.6376C99.2734 92.5496 100.023 91.948 100.799 91.948C101.575 91.948 102.335 92.5317 102.335 93.6197C102.335 94.7077 101.585 95.3374 100.799 95.3374Z" fill="#0C162C"/>
<path d="M105.641 89.8718H104.588V91.1237H103.994V91.9736H104.588V94.7614C104.588 95.7854 105.146 96.1592 106.042 96.1592H106.864V95.2913H106.224C105.786 95.2913 105.641 95.1352 105.641 94.7614V91.9736H106.864V91.1237H105.641V89.8718Z" fill="#0C162C"/>
<path d="M108.865 91.1237H107.823V96.1592H108.865V91.1237Z" fill="#0C162C"/>
<path d="M108.354 89.1217C107.98 89.1217 107.685 89.4135 107.685 89.7873C107.685 90.1611 107.977 90.4555 108.354 90.4555C108.73 90.4555 109.012 90.1636 109.012 89.7873C109.012 89.411 108.72 89.1217 108.354 89.1217Z" fill="#185FFF"/>
<path d="M116.331 91.0417C115.599 91.0417 114.887 91.4258 114.577 92.0376C114.229 91.3797 113.563 91.0417 112.767 91.0417C112.163 91.0417 111.615 91.2875 111.277 91.6997V91.1237H110.235V96.1592H111.277V93.3457C111.277 92.4216 111.779 91.948 112.547 91.948C113.315 91.948 113.809 92.4241 113.809 93.3457V96.1592H114.841V93.3457C114.841 92.4216 115.343 91.948 116.111 91.948C116.879 91.948 117.373 92.4241 117.373 93.3457V96.1592H118.404V93.1896C118.404 91.7816 117.508 91.0417 116.331 91.0417Z" fill="#0C162C"/>
<path d="M120.258 89.1217C119.884 89.1217 119.589 89.4135 119.589 89.7873C119.589 90.1611 119.881 90.4555 120.258 90.4555C120.634 90.4555 120.916 90.1636 120.916 89.7873C120.916 89.411 120.624 89.1217 120.258 89.1217Z" fill="#185FFF"/>
<path d="M120.769 91.1237H119.727V96.1592H120.769V91.1237Z" fill="#0C162C"/>
<path d="M121.857 91.9736H124.151L121.857 95.3093V96.1592H125.347V95.3093H123.063L125.347 91.9736V91.1237H121.857V91.9736Z" fill="#0C162C"/>
<path d="M128.608 91.0417C127.118 91.0417 126.094 92.0555 126.094 93.6376C126.094 95.2197 127.165 96.2437 128.608 96.2437C129.842 96.2437 130.636 95.5397 130.92 94.6616H129.796C129.604 95.0533 129.248 95.3656 128.608 95.3656C127.84 95.3656 127.246 94.8638 127.175 94.0318H131.022C131.051 93.8577 131.058 93.6939 131.058 93.5198C131.058 92.0401 130.045 91.0443 128.608 91.0443V91.0417ZM127.182 93.1896C127.293 92.3934 127.858 91.9198 128.562 91.9198C129.338 91.9198 129.952 92.4139 129.97 93.1896H127.182Z" fill="#0C162C"/>
</svg>
