<svg width="89" height="72" viewBox="0 0 89 72" fill="none" xmlns="http://www.w3.org/2000/svg">
<g clip-path="url(#clip0_2059_4596)">
<path opacity="0.6" d="M37.0044 54.0018H48.9514C49.9449 54.0018 50.7505 54.8074 50.7505 55.8009V70.2009C50.7505 71.1944 49.9449 72 48.9514 72H31.0363C29.7538 72 28.8831 70.6958 29.3745 69.5109L35.3426 55.1109C35.6207 54.4389 36.2782 54.0018 37.0044 54.0018Z" fill="white"/>
<path d="M65.1071 20.7077C64.5038 21.311 63.5645 21.4013 62.8528 20.9353C60.0205 19.082 56.6391 17.9982 53.0011 17.9982H7.77081C7.04467 17.9982 6.38717 17.5611 6.10899 16.8891L0.137292 2.48911C-0.354027 1.30416 0.520233 0 1.80272 0H52.9903C61.3969 0 69.1244 2.87928 75.255 7.70216C76.104 8.3705 76.1798 9.63492 75.414 10.3972L65.1035 20.7077H65.1071Z" fill="white"/>
<path opacity="0.7" d="M65.1034 51.2923L75.4066 61.5956C76.1725 62.3615 76.0967 63.6223 75.2477 64.2906C70.1792 68.2898 64.0124 70.9451 57.2784 71.7435C56.2018 71.8699 55.2517 71.0354 55.2517 69.9516V55.3746C55.2517 54.522 55.8514 53.7923 56.6859 53.6189C58.9222 53.1564 61.003 52.2713 62.8491 51.0647C63.5644 50.5987 64.5037 50.689 65.107 51.2923H65.1034Z" fill="white"/>
<path opacity="0.8" d="M72.3793 38.2507H86.9418C88.022 38.2507 88.8602 39.1972 88.7337 40.2701C88.1485 45.2267 86.5589 49.8762 84.1709 54.0018C83.3111 55.4938 82.3466 56.9136 81.2881 58.2575C80.6197 59.1029 79.3589 59.1787 78.593 58.4128L68.2898 48.1096C67.6864 47.5063 67.5961 46.567 68.0622 45.8517C69.2724 44.002 70.1539 41.9211 70.6199 39.6849C70.7933 38.8504 71.5231 38.2543 72.3757 38.2543L72.3793 38.2507Z" fill="white"/>
<path opacity="0.9" d="M70.6272 32.3187C70.1612 30.0789 69.2797 27.998 68.0695 26.1519C67.5998 25.4366 67.6902 24.4974 68.2935 23.8904L78.5967 13.5872C79.359 12.8249 80.6198 12.8972 81.2918 13.7425C82.3539 15.0864 83.3185 16.5062 84.1747 17.9982C86.5626 22.1238 88.1522 26.7733 88.7374 31.7299C88.8639 32.8028 88.0221 33.7493 86.9456 33.7493H72.383C71.5304 33.7493 70.8006 33.1496 70.6272 32.3187Z" fill="white"/>
<path opacity="0.5" d="M45.9493 29.4864L39.9884 43.8864C39.7102 44.5584 39.0527 44.9991 38.3266 44.9991H18.9592C18.2331 44.9991 17.5756 44.562 17.2974 43.89L11.3293 29.49C10.838 28.3051 11.7086 27.0009 12.9911 27.0009H44.2874C45.5699 27.0009 46.4406 28.3051 45.9493 29.49V29.4864Z" fill="white"/>
</g>
<defs>
<clipPath id="clip0_2059_4596">
<rect width="88.7518" height="72" fill="white"/>
</clipPath>
</defs>
</svg>
