<svg width="65" height="52" viewBox="0 0 65 52" fill="none" xmlns="http://www.w3.org/2000/svg">
<g clip-path="url(#clip0_2765_48588)">
<path opacity="0.6" d="M26.7257 39H35.3541C36.0716 39 36.6534 39.5818 36.6534 40.2994V50.6994C36.6534 51.4169 36.0716 51.9987 35.3541 51.9987H22.4154C21.4892 51.9987 20.8604 51.0568 21.2152 50.201L25.5255 39.801C25.7264 39.3157 26.2013 39 26.7257 39Z" fill="#185FFF"/>
<path d="M47.0219 14.9555C46.5861 15.3913 45.9078 15.4565 45.3938 15.1199C43.3482 13.7814 40.9061 12.9987 38.2787 12.9987H5.61233C5.0879 12.9987 4.61304 12.683 4.41213 12.1977L0.0992369 1.79769C-0.255605 0.941897 0.375805 0 1.30205 0H38.2708C44.3423 0 49.9232 2.07948 54.3509 5.56267C54.9641 6.04536 55.0189 6.95856 54.4657 7.50908L47.0193 14.9555H47.0219Z" fill="#185FFF"/>
<path opacity="0.7" d="M47.0199 37.0442L54.4611 44.4854C55.0143 45.0386 54.9595 45.9492 54.3463 46.4319C50.6857 49.3202 46.2319 51.2379 41.3685 51.8145C40.591 51.9058 39.9048 51.3031 39.9048 50.5204V39.9925C39.9048 39.3768 40.3379 38.8497 40.9406 38.7245C42.5557 38.3905 44.0585 37.7513 45.3918 36.8798C45.9084 36.5433 46.5868 36.6085 47.0225 37.0442H47.0199Z" fill="#185FFF"/>
<path opacity="0.8" d="M52.2746 27.625H62.792C63.5721 27.625 64.1775 28.3086 64.0861 29.0835C63.6635 32.6632 62.5154 36.0212 60.7908 39.0008C60.1698 40.0784 59.4732 41.1038 58.7087 42.0744C58.226 42.6849 57.3154 42.7397 56.7623 42.1866L49.3211 34.7453C48.8853 34.3096 48.8201 33.6312 49.1567 33.1146C50.0307 31.7787 50.6674 30.2759 51.0039 28.6608C51.1292 28.0581 51.6562 27.6276 52.272 27.6276L52.2746 27.625Z" fill="#185FFF"/>
<path opacity="0.9" d="M51.009 23.3415C50.6724 21.7238 50.0358 20.221 49.1617 18.8877C48.8225 18.3711 48.8878 17.6927 49.3235 17.2544L56.7647 9.81312C57.3153 9.2626 58.2259 9.31478 58.7112 9.92532C59.4782 10.8959 60.1749 11.9213 60.7932 12.9989C62.5179 15.9785 63.6659 19.3365 64.0886 22.9162C64.1799 23.6911 63.572 24.3747 62.7944 24.3747H52.277C51.6613 24.3747 51.1342 23.9416 51.009 23.3415Z" fill="#185FFF"/>
<path opacity="0.5" d="M33.1853 21.2951L28.8803 31.6951C28.6794 32.1804 28.2045 32.4987 27.6801 32.4987H13.6925C13.1681 32.4987 12.6932 32.183 12.4923 31.6977L8.18201 21.2977C7.82717 20.4419 8.45597 19.5 9.38221 19.5H31.9851C32.9114 19.5 33.5402 20.4419 33.1853 21.2977V21.2951Z" fill="#185FFF"/>
</g>
<defs>
<clipPath id="clip0_2765_48588">
<rect width="64.0985" height="52" fill="white"/>
</clipPath>
</defs>
</svg>
